<svg width="1301" height="621.5" xmlns="http://www.w3.org/2000/svg" xmlns:xlink="http://www.w3.org/1999/xlink" fill="#ffffff"><defs><style>
  text {
    fill: #212529;
    font-family: Helvetica Neue, Helvetica, Arial, sans-serif;
    font-size: 16px;
  }

  marker, text {
    fill-opacity: 1;
  }

  * {
    overflow: visible;
  }
</style></defs><svg x="275" y="435" width="200" height="170" class="IDE" fill="#ffffff"><g><rect width="100%" height="40" stroke="none" fill="white" class="sc-fqkvVR eDtKfR"></rect><rect y="40" width="100%" height="130" stroke="none" fill="white" class="sc-fqkvVR eDtKfR"></rect><svg height="40"><text x="50%" y="50%" dominant-baseline="middle" text-anchor="middle" font-weight="bold" pointer-events="none">IDE</text></svg><svg x="0" y="40.5" width="199" height="40" class="openUMLEditor()" fill="#ffffff"><g><rect width="100%" height="100%" stroke="none" fill="white" class="sc-fqkvVR eDtKfR"></rect><text x="10" y="50%" dominant-baseline="middle" text-anchor="start" font-weight="normal" pointer-events="none">openUMLEditor()</text></g></svg><svg x="0" y="80.5" width="199" height="30" class="modelDiagram()" fill="#ffffff"><g><rect width="100%" height="100%" stroke="none" fill="white" class="sc-fqkvVR eDtKfR"></rect><text x="10" y="50%" dominant-baseline="middle" text-anchor="start" font-weight="normal" pointer-events="none">modelDiagram()</text></g></svg><svg x="0" y="110.5" width="199" height="30" class="draftDiagram()" fill="#ffffff"><g><rect width="100%" height="100%" stroke="none" fill="white" class="sc-fqkvVR eDtKfR"></rect><text x="10" y="50%" dominant-baseline="middle" text-anchor="start" font-weight="normal" pointer-events="none">draftDiagram()</text></g></svg><svg x="0" y="140.5" width="199" height="30" class="exportDiagram()" fill="#ffffff"><g><rect width="100%" height="100%" stroke="none" fill="white" class="sc-fqkvVR eDtKfR"></rect><text x="10" y="50%" dominant-baseline="middle" text-anchor="start" font-weight="normal" pointer-events="none">exportDiagram()</text></g></svg><rect width="100%" height="100%" stroke="black" fill="none" class="sc-fqkvVR jAaomD"></rect><path d="M 0 40 H 200" stroke="black" fill="white" class="sc-gEvEer fkqzOi"></path></g></svg><svg x="555" y="315" width="170" height="40" class="Developer" fill="#ffffff"><g><rect width="100%" height="40" stroke="none" fill="white" class="sc-fqkvVR eDtKfR"></rect><rect y="40" width="100%" height="0" stroke="none" fill="white" class="sc-fqkvVR eDtKfR"></rect><svg height="40"><text x="50%" y="50%" dominant-baseline="middle" text-anchor="middle" font-weight="bold" pointer-events="none">Developer</text></svg><rect width="100%" height="100%" stroke="black" fill="none" class="sc-fqkvVR jAaomD"></rect></g></svg><svg x="555" y="155" width="180" height="100" class="Issue" fill="#ffffff"><g><rect width="100%" height="40" stroke="none" fill="white" class="sc-fqkvVR eDtKfR"></rect><rect y="40" width="100%" height="60" stroke="none" fill="white" class="sc-fqkvVR eDtKfR"></rect><svg height="40"><text x="50%" y="50%" dominant-baseline="middle" text-anchor="middle" font-weight="bold" pointer-events="none">Issue</text></svg><svg x="0" y="40.5" width="179" height="30" class="isPullRequest" fill="#ffffff"><g><rect width="100%" height="100%" stroke="none" fill="white" class="sc-fqkvVR eDtKfR"></rect><text x="10" y="50%" dominant-baseline="middle" text-anchor="start" font-weight="normal" pointer-events="none">isPullRequest</text></g></svg><svg x="0" y="70.5" width="179" height="30" class="embedDiagram()" fill="#ffffff"><g><rect width="100%" height="100%" stroke="none" fill="white" class="sc-fqkvVR eDtKfR"></rect><text x="10" y="50%" dominant-baseline="middle" text-anchor="start" font-weight="normal" pointer-events="none">embedDiagram()</text></g></svg><rect width="100%" height="100%" stroke="black" fill="none" class="sc-fqkvVR jAaomD"></rect><path d="M 0 40 H 180" stroke="black" fill="white" class="sc-gEvEer fkqzOi"></path><path d="M 0 70 H 180" stroke="black" fill="white" class="sc-gEvEer fkqzOi"></path></g></svg><svg x="15" y="165" width="220" height="280" class="UML Diagram Editor" fill="#ffffff"><g><rect width="100%" height="40" stroke="none" fill="white" class="sc-fqkvVR eDtKfR"></rect><rect y="40" width="100%" height="240" stroke="none" fill="white" class="sc-fqkvVR eDtKfR"></rect><svg height="40"><text x="50%" y="50%" dominant-baseline="middle" text-anchor="middle" font-weight="bold" pointer-events="none">UML Diagram Editor</text></svg><svg x="0" y="40.5" width="219" height="30" class="modelDiagram()" fill="#ffffff"><g><rect width="100%" height="100%" stroke="none" fill="white" class="sc-fqkvVR eDtKfR"></rect><text x="10" y="50%" dominant-baseline="middle" text-anchor="start" font-weight="normal" pointer-events="none">modelDiagram()</text></g></svg><svg x="0" y="70.5" width="219" height="30" class="viewDiagram()" fill="#ffffff"><g><rect width="100%" height="100%" stroke="none" fill="white" class="sc-fqkvVR eDtKfR"></rect><text x="10" y="50%" dominant-baseline="middle" text-anchor="start" font-weight="normal" pointer-events="none">viewDiagram()</text></g></svg><svg x="0" y="100.5" width="219" height="30" class="createDiagramVersion()" fill="#ffffff"><g><rect width="100%" height="100%" stroke="none" fill="white" class="sc-fqkvVR eDtKfR"></rect><text x="10" y="50%" dominant-baseline="middle" text-anchor="start" font-weight="normal" pointer-events="none">createDiagramVersion()</text></g></svg><svg x="0" y="130.5" width="219" height="30" class="deleteDiagramVersion()" fill="#ffffff"><g><rect width="100%" height="100%" stroke="none" fill="white" class="sc-fqkvVR eDtKfR"></rect><text x="10" y="50%" dominant-baseline="middle" text-anchor="start" font-weight="normal" pointer-events="none">deleteDiagramVersion()</text></g></svg><svg x="0" y="160.5" width="219" height="30" class="editDiagramVersion()" fill="#ffffff"><g><rect width="100%" height="100%" stroke="none" fill="white" class="sc-fqkvVR eDtKfR"></rect><text x="10" y="50%" dominant-baseline="middle" text-anchor="start" font-weight="normal" pointer-events="none">editDiagramVersion()</text></g></svg><svg x="0" y="190.5" width="219" height="30" class="previewDiagramVersion()" fill="#ffffff"><g><rect width="100%" height="100%" stroke="none" fill="white" class="sc-fqkvVR eDtKfR"></rect><text x="10" y="50%" dominant-baseline="middle" text-anchor="start" font-weight="normal" pointer-events="none">previewDiagramVersion()</text></g></svg><svg x="0" y="220.5" width="219" height="30" class="restoreDiagramVersion()" fill="#ffffff"><g><rect width="100%" height="100%" stroke="none" fill="white" class="sc-fqkvVR eDtKfR"></rect><text x="10" y="50%" dominant-baseline="middle" text-anchor="start" font-weight="normal" pointer-events="none">restoreDiagramVersion()</text></g></svg><svg x="0" y="250.5" width="219" height="30" class="exportEmbedding()" fill="#ffffff"><g><rect width="100%" height="100%" stroke="none" fill="white" class="sc-fqkvVR eDtKfR"></rect><text x="10" y="50%" dominant-baseline="middle" text-anchor="start" font-weight="normal" pointer-events="none">exportEmbedding()</text></g></svg><rect width="100%" height="100%" stroke="black" fill="none" class="sc-fqkvVR jAaomD"></rect><path d="M 0 40 H 220" stroke="black" fill="white" class="sc-gEvEer fkqzOi"></path></g></svg><svg x="1075" y="315" width="210" height="40" class="Technical Documentation" fill="#ffffff"><g><rect width="100%" height="40" stroke="none" fill="white" class="sc-fqkvVR eDtKfR"></rect><rect y="40" width="100%" height="0" stroke="none" fill="white" class="sc-fqkvVR eDtKfR"></rect><svg height="40"><text x="50%" y="50%" dominant-baseline="middle" text-anchor="middle" font-weight="bold" pointer-events="none">Technical Documentation</text></svg><rect width="100%" height="100%" stroke="black" fill="none" class="sc-fqkvVR jAaomD"></rect></g></svg><svg x="1105" y="225" width="160" height="40" class="Thesis" fill="#ffffff"><g><rect width="100%" height="40" stroke="none" fill="white" class="sc-fqkvVR eDtKfR"></rect><rect y="40" width="100%" height="0" stroke="none" fill="white" class="sc-fqkvVR eDtKfR"></rect><svg height="40"><text x="50%" y="50%" dominant-baseline="middle" text-anchor="middle" font-weight="bold" pointer-events="none">Thesis</text></svg><rect width="100%" height="100%" stroke="black" fill="none" class="sc-fqkvVR jAaomD"></rect></g></svg><svg x="25" y="55" width="210" height="40" class="Version History" fill="#ffffff"><g><rect width="100%" height="40" stroke="none" fill="white" class="sc-fqkvVR eDtKfR"></rect><rect y="40" width="100%" height="0" stroke="none" fill="white" class="sc-fqkvVR eDtKfR"></rect><svg height="40"><text x="50%" y="50%" dominant-baseline="middle" text-anchor="middle" font-weight="bold" pointer-events="none">Version History</text></svg><rect width="100%" height="100%" stroke="black" fill="none" class="sc-fqkvVR jAaomD"></rect></g></svg><svg x="345" y="15" width="190" height="140" class="UML Diagram Version" fill="#ffffff"><g><rect width="100%" height="40" stroke="none" fill="white" class="sc-fqkvVR eDtKfR"></rect><rect y="40" width="100%" height="100" stroke="none" fill="white" class="sc-fqkvVR eDtKfR"></rect><svg height="40"><text x="50%" y="50%" dominant-baseline="middle" text-anchor="middle" font-weight="bold" pointer-events="none">UML Diagram Version</text></svg><svg x="0" y="40.5" width="189" height="40" class="title" fill="#ffffff"><g><rect width="100%" height="100%" stroke="none" fill="white" class="sc-fqkvVR eDtKfR"></rect><text x="10" y="50%" dominant-baseline="middle" text-anchor="start" font-weight="normal" pointer-events="none">title</text></g></svg><svg x="0" y="80.5" width="189" height="30" class="diagram" fill="#ffffff"><g><rect width="100%" height="100%" stroke="none" fill="white" class="sc-fqkvVR eDtKfR"></rect><text x="10" y="50%" dominant-baseline="middle" text-anchor="start" font-weight="normal" pointer-events="none">diagram</text></g></svg><svg x="0" y="110.5" width="189" height="30" class="createdAt" fill="#ffffff"><g><rect width="100%" height="100%" stroke="none" fill="white" class="sc-fqkvVR eDtKfR"></rect><text x="10" y="50%" dominant-baseline="middle" text-anchor="start" font-weight="normal" pointer-events="none">createdAt</text></g></svg><rect width="100%" height="100%" stroke="black" fill="none" class="sc-fqkvVR jAaomD"></rect><path d="M 0 40 H 190" stroke="black" fill="white" class="sc-gEvEer fkqzOi"></path></g></svg><svg x="1105" y="405" width="160" height="40" class="Knowledge Base" fill="#ffffff"><g><rect width="100%" height="40" stroke="none" fill="white" class="sc-fqkvVR eDtKfR"></rect><rect y="40" width="100%" height="0" stroke="none" fill="white" class="sc-fqkvVR eDtKfR"></rect><svg height="40"><text x="50%" y="50%" dominant-baseline="middle" text-anchor="middle" font-weight="bold" pointer-events="none">Knowledge Base</text></svg><rect width="100%" height="100%" stroke="black" fill="none" class="sc-fqkvVR jAaomD"></rect></g></svg><svg x="815" y="315" width="160" height="40" class="Documentation" fill="#ffffff"><g><rect width="100%" height="40" stroke="none" fill="white" class="sc-fqkvVR eDtKfR"></rect><rect y="40" width="100%" height="0" stroke="none" fill="white" class="sc-fqkvVR eDtKfR"></rect><svg height="40"><text x="50%" y="50%" dominant-baseline="middle" text-anchor="middle" font-weight="bold" pointer-events="none">Documentation</text></svg><rect width="100%" height="100%" stroke="black" fill="none" class="sc-fqkvVR jAaomD"></rect></g></svg><svg x="805" y="35" width="160" height="80" class="Feedback" fill="#ffffff"><g><rect width="100%" height="40" stroke="none" fill="white" class="sc-fqkvVR eDtKfR"></rect><rect y="40" width="100%" height="40" stroke="none" fill="white" class="sc-fqkvVR eDtKfR"></rect><svg height="40"><text x="50%" y="50%" dominant-baseline="middle" text-anchor="middle" font-weight="bold" pointer-events="none">Feedback</text></svg><svg x="0" y="40.5" width="159" height="40" class="content" fill="#ffffff"><g><rect width="100%" height="100%" stroke="none" fill="white" class="sc-fqkvVR eDtKfR"></rect><text x="10" y="50%" dominant-baseline="middle" text-anchor="start" font-weight="normal" pointer-events="none">content</text></g></svg><rect width="100%" height="100%" stroke="black" fill="none" class="sc-fqkvVR jAaomD"></rect><path d="M 0 40 H 160" stroke="black" fill="white" class="sc-gEvEer fkqzOi"></path></g></svg><svg x="125" y="95" width="34.015625" height="79" class="" fill="#ffffff"><g><polyline points="5 70,5 0" stroke-width="1" marker-end="url(#marker-7fec2074-8e88-491b-a064-81a17837a788)" stroke="black" fill="none" class="sc-aXZVg eMElBf"></polyline><text x="5" y="62" dx="5" text-anchor="start" pointer-events="none">1</text><text x="5" y="8" dx="5" dy="10" text-anchor="start" pointer-events="none">1..*</text><text x="5" y="62" dx="-5" text-anchor="end" pointer-events="none"></text><text x="5" y="8" dx="-5" dy="10" text-anchor="end" pointer-events="none"></text></g></svg><svg x="235" y="325" width="320" height="31" class="" fill="#ffffff"><g><marker id="marker-e3a0f48e-01fd-4241-97dc-d465f0f190bf" viewBox="0 0 30 30" markerWidth="22" markerHeight="30" refX="30" refY="15" orient="auto" markerUnits="strokeWidth"><path d="M0,29 L30,15 L0,1" stroke="black" fill="none" class="sc-gEvEer bFSwyf"></path></marker><polyline points="320 10,0 10" stroke-width="1" marker-end="url(#marker-e3a0f48e-01fd-4241-97dc-d465f0f190bf)" stroke-dasharray="7" stroke="black" fill="none" class="sc-aXZVg eMElBf"></polyline><text x="312" y="10" dy="21" text-anchor="end" pointer-events="none"></text><text x="31" y="10" dy="21" text-anchor="start" pointer-events="none"></text><text x="312" y="10" dy="-10" text-anchor="end" pointer-events="none">creates diagram</text><text x="31" y="10" dy="-10" text-anchor="start" pointer-events="none"></text></g></svg><svg x="235" y="200" width="320" height="31" class="" fill="#ffffff"><g><marker id="marker-6e84473c-6550-4783-9e34-d2f0c4b4abd4" viewBox="0 0 30 30" markerWidth="22" markerHeight="30" refX="30" refY="15" orient="auto" markerUnits="strokeWidth"><path d="M0,29 L30,15 L0,1" stroke="black" fill="none" class="sc-gEvEer bFSwyf"></path></marker><polyline points="0 10,320 10" stroke-width="1" marker-end="url(#marker-6e84473c-6550-4783-9e34-d2f0c4b4abd4)" stroke-dasharray="7" stroke="black" fill="none" class="sc-aXZVg eMElBf"></polyline><text x="8" y="10" dy="21" text-anchor="start" pointer-events="none"></text><text x="289" y="10" dy="21" text-anchor="end" pointer-events="none"></text><text x="8" y="10" dy="-10" text-anchor="start" pointer-events="none">embeds diagram</text><text x="289" y="10" dy="-10" text-anchor="end" pointer-events="none"></text></g></svg><svg x="635" y="255" width="34.015625" height="69" class="" fill="#ffffff"><g><polyline points="5 60,5 0" stroke-width="1" marker-end="url(#marker-7cb9b20c-ed6d-4ae3-950b-df6dd3db8c06)" stroke="black" fill="none" class="sc-aXZVg eMElBf"></polyline><text x="5" y="52" dx="5" text-anchor="start" pointer-events="none">0..*</text><text x="5" y="8" dx="5" dy="10" text-anchor="start" pointer-events="none">1..*</text><text x="5" y="52" dx="-5" text-anchor="end" pointer-events="none"></text><text x="5" y="8" dx="-5" dy="10" text-anchor="end" pointer-events="none"></text></g></svg><svg x="235" y="65" width="110" height="49.75" class="" fill="#ffffff"><g><polyline points="0 10,110 10" stroke-width="1" marker-end="url(#marker-6cdc4c04-0814-4ef6-9f1e-f11f78d59998)" stroke="black" fill="none" class="sc-aXZVg eMElBf"></polyline><text x="8" y="10" dy="21" text-anchor="start" pointer-events="none">1</text><text x="102" y="10" dy="21" text-anchor="end" pointer-events="none">1..*</text><text x="8" y="10" dy="-10" text-anchor="start" pointer-events="none"></text><text x="102" y="10" dy="-10" text-anchor="end" pointer-events="none"></text></g></svg><svg x="370" y="355" width="275" height="80" class="" fill="#ffffff"><g><marker id="marker-cbb2d464-afea-4ee9-9cbb-610fe02d9419" viewBox="0 0 30 30" markerWidth="22" markerHeight="30" refX="30" refY="15" orient="auto" markerUnits="strokeWidth"><path d="M0,29 L30,15 L0,1" stroke="black" fill="none" class="sc-gEvEer bFSwyf"></path></marker><polyline points="270 0,270 40,5 40,5 80" stroke-width="1" marker-end="url(#marker-cbb2d464-afea-4ee9-9cbb-610fe02d9419)" stroke-dasharray="7" stroke="black" fill="none" class="sc-aXZVg eMElBf"></polyline><text x="270" y="8" dx="5" dy="10" text-anchor="start" pointer-events="none"></text><text x="5" y="49" dx="5" text-anchor="start" pointer-events="none"></text><text x="270" y="8" dx="-5" dy="10" text-anchor="end" pointer-events="none">creates diagram</text><text x="5" y="49" dx="-5" text-anchor="end" pointer-events="none"></text></g></svg><svg x="475" y="355" width="425" height="186" class="" fill="#ffffff"><g><marker id="marker-41e5dad8-09fc-4834-9c9b-63b70b34d123" viewBox="0 0 30 30" markerWidth="22" markerHeight="30" refX="30" refY="15" orient="auto" markerUnits="strokeWidth"><path d="M0,29 L30,15 L0,1" stroke="black" fill="none" class="sc-gEvEer bFSwyf"></path></marker><polyline points="0 165,420 165,420 0" stroke-width="1" marker-end="url(#marker-41e5dad8-09fc-4834-9c9b-63b70b34d123)" stroke-dasharray="7" stroke="black" fill="none" class="sc-aXZVg eMElBf"></polyline><text x="8" y="165" dy="21" text-anchor="start" pointer-events="none"></text><text x="420" y="31" dx="5" dy="10" text-anchor="start" pointer-events="none"></text><text x="8" y="165" dy="-10" text-anchor="start" pointer-events="none">embeds diagram</text><text x="420" y="31" dx="-5" dy="10" text-anchor="end" pointer-events="none"></text></g></svg><svg x="735" y="115" width="179.015625" height="128" class="" fill="#ffffff"><g><polyline points="0 90,150 90,150 0" stroke-width="1" marker-end="url(#marker-baafcecd-3551-4e49-9967-3099570f774a)" stroke="black" fill="none" class="sc-aXZVg eMElBf"></polyline><text x="8" y="90" dy="21" text-anchor="start" pointer-events="none">1</text><text x="150" y="8" dx="5" dy="10" text-anchor="start" pointer-events="none">0..*</text><text x="8" y="90" dy="-10" text-anchor="start" pointer-events="none"></text><text x="150" y="8" dx="-5" dy="10" text-anchor="end" pointer-events="none"></text></g></svg><svg x="535" y="65" width="270" height="31" class="" fill="#ffffff"><g><polyline points="0 10,270 10" stroke-width="1" marker-end="url(#marker-ce9cb1a7-fe5e-4d44-b399-1bb48d1ed69e)" stroke="black" fill="none" class="sc-aXZVg eMElBf"></polyline><text x="8" y="10" dy="21" text-anchor="start" pointer-events="none"></text><text x="262" y="10" dy="21" text-anchor="end" pointer-events="none"></text><text x="8" y="10" dy="-10" text-anchor="start" pointer-events="none">1</text><text x="262" y="10" dy="-10" text-anchor="end" pointer-events="none">0..*</text></g></svg><svg x="725" y="325" width="90" height="31" class="" fill="#ffffff"><g><polyline points="0 10,90 10" stroke-width="1" marker-end="url(#marker-bcf2e5a4-753c-413e-a00f-cfb3081dcfb6)" stroke="black" fill="none" class="sc-aXZVg eMElBf"></polyline><text x="8" y="10" dy="21" text-anchor="start" pointer-events="none"></text><text x="82" y="10" dy="21" text-anchor="end" pointer-events="none"></text><text x="8" y="10" dy="-10" text-anchor="start" pointer-events="none">1..*</text><text x="82" y="10" dy="-10" text-anchor="end" pointer-events="none">1..*</text></g></svg><svg x="975" y="325" width="100" height="31" class="" fill="#ffffff"><g><marker id="marker-643cd7c8-e9f3-40f1-bb91-ba17813a474b" viewBox="0 0 30 30" markerWidth="22" markerHeight="30" refX="30" refY="15" orient="auto" markerUnits="strokeWidth"><path d="M0,1 L0,29 L30,15 z" stroke="black" fill="white" class="sc-gEvEer fkqzOi"></path></marker><polyline points="100 10,0 10" stroke-width="1" marker-end="url(#marker-643cd7c8-e9f3-40f1-bb91-ba17813a474b)" stroke="black" fill="none" class="sc-aXZVg eMElBf"></polyline><text x="92" y="10" dy="21" text-anchor="end" pointer-events="none"></text><text x="31" y="10" dy="21" text-anchor="start" pointer-events="none"></text><text x="92" y="10" dy="-10" text-anchor="end" pointer-events="none"></text><text x="31" y="10" dy="-10" text-anchor="start" pointer-events="none"></text></g></svg><svg x="975" y="325" width="130" height="121" class="" fill="#ffffff"><g><polyline points="130 100,65 100,65 10,0 10" stroke-width="1" marker-end="url(#marker-7851f653-2b9a-4d39-beaf-86e57c1404a5)" stroke="black" fill="none" class="sc-aXZVg eMElBf"></polyline><text x="122" y="100" dy="21" text-anchor="end" pointer-events="none"></text><text x="8" y="10" dy="21" text-anchor="start" pointer-events="none"></text><text x="122" y="100" dy="-10" text-anchor="end" pointer-events="none"></text><text x="8" y="10" dy="-10" text-anchor="start" pointer-events="none"></text></g></svg><svg x="975" y="235" width="130" height="121" class="" fill="#ffffff"><g><polyline points="130 10,65 10,65 100,0 100" stroke-width="1" marker-end="url(#marker-5d50358a-0168-45a8-ab71-5b57d2e9d7a8)" stroke="black" fill="none" class="sc-aXZVg eMElBf"></polyline><text x="122" y="10" dy="21" text-anchor="end" pointer-events="none"></text><text x="8" y="100" dy="21" text-anchor="start" pointer-events="none"></text><text x="122" y="10" dy="-10" text-anchor="end" pointer-events="none"></text><text x="8" y="100" dy="-10" text-anchor="start" pointer-events="none"></text></g></svg></svg>