<svg width="841" height="461" xmlns="http://www.w3.org/2000/svg" xmlns:xlink="http://www.w3.org/1999/xlink" fill="#ffffff"><defs><style>
  text {
    fill: #212529;
    font-family: Helvetica Neue, Helvetica, Arial, sans-serif;
    font-size: 16px;
  }

  marker, text {
    fill-opacity: 1;
  }

  * {
    overflow: visible;
  }
</style></defs><svg x="15" y="305" width="80" height="140" class="Developer" fill="#ffffff"><g><rect width="100%" height="100%" fill="none"></rect><g stroke="black" stroke-width="2"><circle cx="40" cy="25" r="15" stroke="black" fill="white" class="sc-iGgWBj fYmGgq"></circle><line x1="40" y1="40" x2="40" y2="80" stroke="black" class="sc-imWYAI kESMEa"></line><line x1="10" y1="50" x2="70" y2="50" stroke="black" class="sc-imWYAI kESMEa"></line><line x1="40" y1="80" x2="10" y2="110" stroke="black" class="sc-imWYAI kESMEa"></line><line x1="40" y1="80" x2="70" y2="110" stroke="black" class="sc-imWYAI kESMEa"></line></g><text x="40" y="130" dominant-baseline="middle" text-anchor="middle" font-weight="bold" pointer-events="none">Developer</text></g></svg><svg x="165" y="15" width="660" height="350" class="Standalone Apollon Editor" fill="#ffffff"><g><rect width="100%" height="100%" stroke="black" fill="white" class="sc-fqkvVR uHYUy"></rect><text x="50%" y="16" dominant-baseline="middle" text-anchor="middle" font-weight="bold" pointer-events="none">Standalone Apollon Editor</text></g></svg><svg x="415" y="55" width="170" height="80" class="Embed Diagram" fill="#ffffff"><g><ellipse cx="50%" cy="50%" rx="50%" ry="50%" stroke="black" fill="white" class="sc-kAyceB ldFMTf"></ellipse><text x="50%" y="50%" dominant-baseline="middle" text-anchor="middle" font-weight="bold" pointer-events="none">Embed Diagram</text></g></svg><svg x="355" y="265" width="290" height="80" class="Iterate with Version Management" fill="#ffffff"><g><ellipse cx="50%" cy="50%" rx="50%" ry="50%" stroke="black" fill="white" class="sc-kAyceB ldFMTf"></ellipse><text x="50%" y="50%" dominant-baseline="middle" text-anchor="middle" font-weight="bold" pointer-events="none">Iterate with Version Management</text></g></svg><svg x="500" y="135" width="1" height="130" class="" fill="#ffffff"><g><g><marker id="marker-90f76be2-8536-4cca-8758-b53b55dd7218" viewBox="0 0 30 30" markerWidth="22" markerHeight="30" refX="30" refY="15" orient="auto" markerUnits="strokeWidth"><path d="M0,29 L30,15 L0,1" stroke="black" fill="none" class="sc-gEvEer bFSwyf"></path></marker><path d="
          M 0 130 L 0 105
          M 0 25 L 0 0
        " stroke-dasharray="7" marker-end="url(#marker-90f76be2-8536-4cca-8758-b53b55dd7218)" stroke="black" fill="white" class="sc-gEvEer fkqzOi"></path></g><path id="textpath-90f76be2-8536-4cca-8758-b53b55dd7218" d="
          M 0 105
          L 0 25
        "></path><text dominant-baseline="middle" text-anchor="middle" font-weight="bold" pointer-events="none"><textPath xlink:href="#textpath-90f76be2-8536-4cca-8758-b53b55dd7218" startOffset="50%">«extend»</textPath></text></g></svg><svg x="95" y="95" width="320" height="280" class="" fill="#ffffff"><g><path id="textpath-93613953-b7c9-4827-9e4e-eaeaf2bb7e06" d="
        M 0 270
        L 320 -10
    "></path><text dominant-baseline="middle" text-anchor="middle" font-weight="bold" pointer-events="none" dy="20px"><textPath xlink:href="#textpath-93613953-b7c9-4827-9e4e-eaeaf2bb7e06" startOffset="50%"></textPath></text><polyline points="0 280,320 0" stroke-width="1" stroke="black" fill="none" class="sc-aXZVg eMElBf"></polyline></g></svg><svg x="95" y="305" width="260" height="70" class="" fill="#ffffff"><g><path id="textpath-aad6fb36-6e51-42d5-9a06-3e77db063763" d="
        M 0 60
        L 260 -10
    "></path><text dominant-baseline="middle" text-anchor="middle" font-weight="bold" pointer-events="none" dy="20px"><textPath xlink:href="#textpath-aad6fb36-6e51-42d5-9a06-3e77db063763" startOffset="50%"></textPath></text><polyline points="0 70,260 0" stroke-width="1" stroke="black" fill="none" class="sc-aXZVg eMElBf"></polyline></g></svg></svg>