<svg width="631" height="381" xmlns="http://www.w3.org/2000/svg" xmlns:xlink="http://www.w3.org/1999/xlink" fill="#ffffff"><defs><style>
  text {
    fill: #212529;
    font-family: Helvetica Neue, Helvetica, Arial, sans-serif;
    font-size: 16px;
  }

  marker, text {
    fill-opacity: 1;
  }

  * {
    overflow: visible;
  }
</style></defs><svg x="15" y="15" width="600" height="350" class="Apollon VSCode Extension" fill="#ffffff"><g data-cy="uml-subsystem"><rect width="100%" height="100%" stroke="black" fill="white" class="sc-fqkvVR uHYUy"></rect><g transform="translate(569, 7)"><path d="M 4.8 0 L 24 0 L 24 24 L 4.8 24 L 4.8 19.2 L 0 19.2 L 0 14.4 L 4.8 14.4 L 4.8 9.6 L 0 9.6 L 0 4.8 L 4.8 4.8 Z" stroke-width="1.2" stroke-miterlimit="10" stroke="black" fill="white" class="sc-gEvEer fkqzOi"></path><path d="M 4.8 4.8 L 9.6 4.8 L 9.6 9.6 L 4.8 9.6 M 4.8 14.4 L 9.6 14.4 L 9.6 19.2 L 4.8 19.2" stroke-width="1.2" stroke-miterlimit="10" stroke="black" fill="none" class="sc-gEvEer bFSwyf"></path></g><text x="50%" y="25px" dominant-baseline="middle" text-anchor="middle" font-weight="bold" pointer-events="none"><tspan x="50%" dy="-8" text-anchor="middle" font-size="85%">«subsystem»</tspan><tspan x="50%" dy="18" text-anchor="middle">Apollon VSCode Extension</tspan></text></g></svg><svg x="55" y="95" width="160" height="100" class="Extension Host" fill="#ffffff"><g data-cy="uml-component"><rect width="100%" height="100%" stroke="black" fill="white" class="sc-fqkvVR uHYUy"></rect><g transform="translate(129, 7)"><path d="M 4.8 0 L 24 0 L 24 24 L 4.8 24 L 4.8 19.2 L 0 19.2 L 0 14.4 L 4.8 14.4 L 4.8 9.6 L 0 9.6 L 0 4.8 L 4.8 4.8 Z" stroke-width="1.2" stroke-miterlimit="10" stroke="black" fill="white" class="sc-gEvEer fkqzOi"></path><path d="M 4.8 4.8 L 9.6 4.8 L 9.6 9.6 L 4.8 9.6 M 4.8 14.4 L 9.6 14.4 L 9.6 19.2 L 4.8 19.2" stroke-width="1.2" stroke-miterlimit="10" stroke="black" fill="none" class="sc-gEvEer bFSwyf"></path></g><text x="50%" y="50%" dominant-baseline="middle" text-anchor="middle" font-weight="bold" pointer-events="none"><tspan x="50%" dy="-8" text-anchor="middle" font-size="85%">«component»</tspan><tspan x="50%" dy="18" text-anchor="middle">Extension Host</tspan></text></g></svg><svg x="365" y="95" width="200" height="100" class="Apollon Editor Webview" fill="#ffffff"><g data-cy="uml-component"><rect width="100%" height="100%" stroke="black" fill="white" class="sc-fqkvVR uHYUy"></rect><g transform="translate(169, 7)"><path d="M 4.8 0 L 24 0 L 24 24 L 4.8 24 L 4.8 19.2 L 0 19.2 L 0 14.4 L 4.8 14.4 L 4.8 9.6 L 0 9.6 L 0 4.8 L 4.8 4.8 Z" stroke-width="1.2" stroke-miterlimit="10" stroke="black" fill="white" class="sc-gEvEer fkqzOi"></path><path d="M 4.8 4.8 L 9.6 4.8 L 9.6 9.6 L 4.8 9.6 M 4.8 14.4 L 9.6 14.4 L 9.6 19.2 L 4.8 19.2" stroke-width="1.2" stroke-miterlimit="10" stroke="black" fill="none" class="sc-gEvEer bFSwyf"></path></g><text x="50%" y="50%" dominant-baseline="middle" text-anchor="middle" font-weight="bold" pointer-events="none"><tspan x="50%" dy="-8" text-anchor="middle" font-size="85%">«component»</tspan><tspan x="50%" dy="18" text-anchor="middle">Apollon Editor Webview</tspan></text></g></svg><svg x="355" y="225" width="220" height="100" class="Extension Menu Webview" fill="#ffffff"><g data-cy="uml-component"><rect width="100%" height="100%" stroke="black" fill="white" class="sc-fqkvVR uHYUy"></rect><g transform="translate(189, 7)"><path d="M 4.8 0 L 24 0 L 24 24 L 4.8 24 L 4.8 19.2 L 0 19.2 L 0 14.4 L 4.8 14.4 L 4.8 9.6 L 0 9.6 L 0 4.8 L 4.8 4.8 Z" stroke-width="1.2" stroke-miterlimit="10" stroke="black" fill="white" class="sc-gEvEer fkqzOi"></path><path d="M 4.8 4.8 L 9.6 4.8 L 9.6 9.6 L 4.8 9.6 M 4.8 14.4 L 9.6 14.4 L 9.6 19.2 L 4.8 19.2" stroke-width="1.2" stroke-miterlimit="10" stroke="black" fill="none" class="sc-gEvEer bFSwyf"></path></g><text x="50%" y="50%" dominant-baseline="middle" text-anchor="middle" font-weight="bold" pointer-events="none"><tspan x="50%" dy="-8" text-anchor="middle" font-size="85%">«component»</tspan><tspan x="50%" dy="18" text-anchor="middle">Extension Menu Webview</tspan></text></g></svg><svg x="215" y="145" width="150" height="1" class="" fill="#ffffff"><g><marker id="marker-9f2d6f16-8ea1-409c-b9cb-b9abc03c0927" viewBox="0 0 30 30" markerWidth="22" markerHeight="30" refX="30" refY="15" orient="auto" markerUnits="strokeWidth"><path d="M0,29 L30,15 L0,1" stroke="black" fill="none" class="sc-gEvEer bFSwyf"></path></marker><polyline points="0 0,150 0" stroke-width="1" stroke-dasharray="7" marker-end="url(#marker-9f2d6f16-8ea1-409c-b9cb-b9abc03c0927)" stroke="black" fill="none" class="sc-aXZVg eMElBf"></polyline></g></svg><svg x="215" y="145" width="140" height="130" class="" fill="#ffffff"><g><marker id="marker-a6c1de63-0fcf-4432-a3f0-ea2a9fbcc7f6" viewBox="0 0 30 30" markerWidth="22" markerHeight="30" refX="30" refY="15" orient="auto" markerUnits="strokeWidth"><path d="M0,29 L30,15 L0,1" stroke="black" fill="none" class="sc-gEvEer bFSwyf"></path></marker><polyline points="0 0,70 0,70 130,140 130" stroke-width="1" stroke-dasharray="7" marker-end="url(#marker-a6c1de63-0fcf-4432-a3f0-ea2a9fbcc7f6)" stroke="black" fill="none" class="sc-aXZVg eMElBf"></polyline></g></svg></svg>